<mxfile host="app.diagrams.net" modified="2023-11-23T07:53:16.429Z" agent="Mozilla/5.0 (Windows NT 10.0; Win64; x64) AppleWebKit/537.36 (KHTML, like Gecko) Chrome/119.0.0.0 Safari/537.36" version="22.1.3" etag="a9Z1j2YPrPyFfj-1SHhs" type="github">
  <diagram name="ページ1" id="OlR5Y7HB_RdvPVWd1noR">
    <mxGraphModel>
      <root>
        <mxCell id="0" />
        <mxCell id="1" parent="0" />
      </root>
    </mxGraphModel>
  </diagram>
</mxfile>
